<?xml version="1.0" standalone="yes"?>
<svg width="111" height="114">
<path style="fill:#010101; stroke:none;" d="M0 0L0 114L111 114L111 0L0 0z"/>
<path style="fill:#4f2602; stroke:none;" d="M57 22L57 23L65 23C62.3873 21.9023 59.8355 22.0072 57 22z"/>
<path style="fill:#924503; stroke:none;" d="M53.6667 23.3333C53.2222 23.7778 54.2778 23.7222 54.3333 23.6667C54.7778 23.2222 53.7222 23.2778 53.6667 23.3333z"/>
<path style="fill:#fd7905; stroke:none;" d="M60 101C59.9911 89.4347 52.9159 91.6325 45.0039 85.4707C36.538 78.8775 31.4448 67.7477 33.3287 57C39.1622 23.7199 84.0588 28.0822 91 58L84 58C87.4298 64.0197 91.9609 69.377 96 75C100.988 70.1084 105.31 63.9248 109 58L101 58C100.372 50.3173 97.3293 43.0254 92.4823 37.0147C88.4603 32.0271 82.88 28.3322 77 25.8765C72.1404 23.847 66.2507 23.0827 61 23.0185C12.3131 22.4237 11.2708 99.9888 60 101z"/>
<path style="fill:#ce6203; stroke:none;" d="M66 23L66 24L69 24C67.7516 23.3152 67.4516 23.2512 66 23z"/>
<path style="fill:#4f2602; stroke:none;" d="M69.6667 23.3333C69.2222 23.7778 70.2778 23.7222 70.3333 23.6667C70.7778 23.2222 69.7222 23.2778 69.6667 23.3333z"/>
<path style="fill:#ce6203; stroke:none;" d="M50.6667 24.3333C50.2222 24.7778 51.2778 24.7222 51.3333 24.6667C51.7777 24.2223 50.7222 24.2778 50.6667 24.3333z"/>
<path style="fill:#924503; stroke:none;" d="M73 24L74 25L73 24z"/>
<path style="fill:#703502; stroke:none;" d="M47 25L48 26L47 25z"/>
<path style="fill:#924503; stroke:none;" d="M76 25L77 26L76 25M45 26L46 27L45 26z"/>
<path style="fill:#b35503; stroke:none;" d="M78 26L79 27L78 26z"/>
<path style="fill:#924503; stroke:none;" d="M43 27L44 28L43 27z"/>
<path style="fill:#b35503; stroke:none;" d="M80 27L81 28L80 27z"/>
<path style="fill:#703502; stroke:none;" d="M41 28L42 29L41 28z"/>
<path style="fill:#924503; stroke:none;" d="M82 28L83 29L82 28z"/>
<path style="fill:#ce6203; stroke:none;" d="M40 29L41 30L40 29z"/>
<path style="fill:#4f2602; stroke:none;" d="M84 29L85 30L84 29z"/>
<path style="fill:#703502; stroke:none;" d="M38 30L39 31L38 30z"/>
<path style="fill:#924503; stroke:none;" d="M85 30L86 31L85 30M37 31L38 32L37 31z"/>
<path style="fill:#b35503; stroke:none;" d="M86 31L87 32L86 31M36 32L37 33L36 32z"/>
<path style="fill:#924503; stroke:none;" d="M55.6667 33.3333C55.2222 33.7778 56.2778 33.7222 56.3333 33.6667C56.7778 33.2222 55.7222 33.2778 55.6667 33.3333z"/>
<path style="fill:#2b1501; stroke:none;" d="M57 33L57 34L65 34C62.3873 32.9023 59.8355 33.0072 57 33z"/>
<path style="fill:#703502; stroke:none;" d="M65 33L65 34L68 34C66.7516 33.3152 66.4516 33.2512 65 33z"/>
<path style="fill:#b35503; stroke:none;" d="M52 34L53 35L52 34z"/>
<path style="fill:#2b1501; stroke:none;" d="M53.6667 34.3333C53.2222 34.7778 54.2778 34.7222 54.3333 34.6667C54.7777 34.2223 53.7222 34.2778 53.6667 34.3333z"/>
<path style="fill:#4f2602; stroke:none;" d="M70 34L71 35L70 34z"/>
<path style="fill:#b35503; stroke:none;" d="M71 34L72 35L71 34z"/>
<path style="fill:#924503; stroke:none;" d="M50 35L51 36L50 35z"/>
<path style="fill:#703502; stroke:none;" d="M73 35L74 36L73 35z"/>
<path style="fill:#b35503; stroke:none;" d="M32 36L33 37L32 36z"/>
<path style="fill:#703502; stroke:none;" d="M48 36L49 37L48 36M75 36L76 37L75 36z"/>
<path style="fill:#924503; stroke:none;" d="M31 37L32 38L31 37M46 37L47 38L46 37M77 37L78 38L77 37z"/>
<path style="fill:#703502; stroke:none;" d="M30 38L31 39L30 38z"/>
<path style="fill:#4f2602; stroke:none;" d="M45 38L46 39L45 38z"/>
<path style="fill:#924503; stroke:none;" d="M93 38L94 39L93 38z"/>
<path style="fill:#b35503; stroke:none;" d="M80 39L81 40L80 39z"/>
<path style="fill:#4f2602; stroke:none;" d="M94 39L95 40L94 39z"/>
<path style="fill:#b35503; stroke:none;" d="M42 40L43 41L42 40z"/>
<path style="fill:#924503; stroke:none;" d="M81 40L82 41L81 40z"/>
<path style="fill:#703502; stroke:none;" d="M28 41L29 42L28 41z"/>
<path style="fill:#b35503; stroke:none;" d="M41 41L42 42L41 41z"/>
<path style="fill:#703502; stroke:none;" d="M82 41L83 42L82 41z"/>
<path style="fill:#924503; stroke:none;" d="M95 41L96 42L95 41z"/>
<path style="fill:#b35503; stroke:none;" d="M40 42L41 43L40 42z"/>
<path style="fill:#924503; stroke:none;" d="M83 42L84 43L83 42z"/>
<path style="fill:#4f2602; stroke:none;" d="M96 42L97 43L96 42z"/>
<path style="fill:#924503; stroke:none;" d="M27 43L28 44L27 43M84 43L85 44L84 43z"/>
<path style="fill:#4f2602; stroke:none;" d="M97 44L98 45L97 44z"/>
<path style="fill:#924503; stroke:none;" d="M26 45L27 46L26 45z"/>
<path style="fill:#4f2602; stroke:none;" d="M38 45L39 46L38 45z"/>
<path style="fill:#924503; stroke:none;" d="M37 46L38 47L37 46z"/>
<path style="fill:#703502; stroke:none;" d="M86 46L87 47L86 46z"/>
<path style="fill:#4f2602; stroke:none;" d="M98 46L99 47L98 46z"/>
<path style="fill:#703502; stroke:none;" d="M25 47L26 48L25 47z"/>
<path style="fill:#b35503; stroke:none;" d="M98 47L99 48L98 47z"/>
<path style="fill:#703502; stroke:none;" d="M36 48L37 49L36 48z"/>
<path style="fill:#4f2602; stroke:none;" d="M87 48L88 49L87 48z"/>
<path style="fill:#8a8a8a; stroke:none;" d="M48 49L48 50L56 50C53.3873 48.9023 50.8355 49.0072 48 49z"/>
<path style="fill:#717171; stroke:none;" d="M56 49C56.5451 50.6352 56.3648 50.4549 58 51C57.4549 49.3648 57.6352 49.5451 56 49z"/>
<path style="fill:#393939; stroke:none;" d="M63 49L64 50L63 49M79 49L80 50L79 49z"/>
<path style="fill:#b35503; stroke:none;" d="M88 49L89 50L88 49z"/>
<path style="fill:#703502; stroke:none;" d="M99 49L100 50L99 49z"/>
<path style="fill:#ce6203; stroke:none;" d="M24.3333 50.6667C24.2778 50.7222 24.2222 51.7778 24.6667 51.3333C24.7222 51.2778 24.7778 50.2222 24.3333 50.6667z"/>
<path style="fill:#703502; stroke:none;" d="M35 50L36 51L35 50z"/>
<path style="fill:#393939; stroke:none;" d="M46 50L47 51L46 50z"/>
<path style="fill:#b1b1b1; stroke:none;" d="M47 50L48 51L47 50z"/>
<path style="fill:#ededed; stroke:none;" d="M47 51L47 52L57 52L57 50C53.514 50.0019 50.35 50.0096 47 51z"/>
<path style="fill:#8a8a8a; stroke:none;" d="M63.6667 50.3333C63.2222 50.7778 64.2778 50.7222 64.3333 50.6667C64.7778 50.2222 63.7222 50.2778 63.6667 50.3333z"/>
<path style="fill:#c8c8c8; stroke:none;" d="M78 50L79 51L78 50z"/>
<path style="fill:#717171; stroke:none;" d="M79 50L80 51L79 50z"/>
<path style="fill:#4f2602; stroke:none;" d="M88 50L89 51L88 50z"/>
<path style="fill:#4d4d4d; stroke:none;" d="M45 51L46 52L45 51z"/>
<path style="fill:#c8c8c8; stroke:none;" d="M45 52L45 53L56 53C52.6159 51.5768 48.6277 51.6012 45 52z"/>
<path style="fill:#8a8a8a; stroke:none;" d="M57 51C56.0143 52.4785 56 52.2032 56 54C57.2892 52.5574 57.4009 52.7663 57 51z"/>
<path style="fill:#393939; stroke:none;" d="M58 51C58.5451 52.6352 58.3648 52.4549 60 53C59.4549 51.3648 59.6352 51.5451 58 51z"/>
<path style="fill:#c8c8c8; stroke:none;" d="M63.3333 51.6667C63.2778 51.7222 63.2222 52.7778 63.6667 52.3333C63.7222 52.2778 63.7778 51.2222 63.3333 51.6667z"/>
<path style="fill:#ededed; stroke:none;" d="M64 51L62 62C66.2485 64.2106 70.304 64 75 64L75 62L64 62C65.6633 58.0573 66.71 54.5956 64 51z"/>
<path style="fill:#717171; stroke:none;" d="M65 51L66 52L65 51z"/>
<path style="fill:#393939; stroke:none;" d="M76 51L77 52L76 51z"/>
<path style="fill:#ededed; stroke:none;" d="M77 51C75.3586 54.8908 74.8264 57.9137 76 62C78.2262 58.7422 78.0935 54.797 79 51L77 51z"/>
<path style="fill:#2b1501; stroke:none;" d="M79.3333 51.6667C79.2777 51.7223 79.2222 52.7778 79.6667 52.3333C79.7222 52.2778 79.7778 51.2222 79.3333 51.6667z"/>
<path style="fill:#b35503; stroke:none;" d="M34 52L35 53L34 52z"/>
<path style="fill:#717171; stroke:none;" d="M44 52L45 53L44 52z"/>
<path style="fill:#ededed; stroke:none;" d="M58 52C56.4846 55.5953 55.9613 58.2153 57 62C59.1234 58.8919 59.4586 55.4838 58 52z"/>
<path style="fill:#717171; stroke:none;" d="M66.3333 52.6667C66.2778 52.7222 66.2222 53.7778 66.6667 53.3333C66.7222 53.2778 66.7778 52.2222 66.3333 52.6667z"/>
<path style="fill:#4d4d4d; stroke:none;" d="M75 52L76 53L75 52z"/>
<path style="fill:#c8c8c8; stroke:none;" d="M78 52L78 55L79 55C78.7488 53.5484 78.6848 53.2484 78 52z"/>
<path style="fill:#703502; stroke:none;" d="M89 52L90 53L89 52z"/>
<path style="fill:#924503; stroke:none;" d="M100.333 52.6667C100.278 52.7223 100.222 53.7778 100.667 53.3333C100.722 53.2778 100.778 52.2222 100.333 52.6667M23.3333 53.6667C23.2778 53.7222 23.2222 54.7778 23.6667 54.3333C23.7222 54.2778 23.7778 53.2222 23.3333 53.6667z"/>
<path style="fill:#2b1501; stroke:none;" d="M44 53L44 54L56 54C52.3025 52.4485 47.9832 53 44 53z"/>
<path style="fill:#b1b1b1; stroke:none;" d="M59 53L59 56L60 56C59.7488 54.5484 59.6848 54.2484 59 53z"/>
<path style="fill:#393939; stroke:none;" d="M62.3333 53.6667C62.2778 53.7222 62.2222 54.7778 62.6667 54.3333C62.7222 54.2778 62.7778 53.2222 62.3333 53.6667z"/>
<path style="fill:#b1b1b1; stroke:none;" d="M75.3333 53.6667C75.2778 53.7223 75.2222 54.7778 75.6667 54.3333C75.7222 54.2778 75.7778 53.2222 75.3333 53.6667z"/>
<path style="fill:#c8c8c8; stroke:none;" d="M56.3333 54.6667C56.2778 54.7222 56.2222 55.7778 56.6667 55.3333C56.7222 55.2778 56.7778 54.2222 56.3333 54.6667z"/>
<path style="fill:#393939; stroke:none;" d="M66.3333 54.6667C66.2778 54.7222 66.2222 55.7778 66.6667 55.3333C66.7222 55.2778 66.7778 54.2222 66.3333 54.6667z"/>
<path style="fill:#924503; stroke:none;" d="M33.3333 55.6667C33.2778 55.7222 33.2222 56.7778 33.6667 56.3333C33.7222 56.2778 33.7778 55.2222 33.3333 55.6667z"/>
<path style="fill:#717171; stroke:none;" d="M62 55L62 58L63 58C62.7488 56.5484 62.6848 56.2484 62 55M78.3333 55.6667C78.2778 55.7222 78.2222 56.7778 78.6667 56.3333C78.7222 56.2778 78.7778 55.2222 78.3333 55.6667z"/>
<path style="fill:#703502; stroke:none;" d="M90 55C87.9433 56.5819 86.6125 56.8256 84 57L84 58C86.5347 57.9896 91.3563 58.598 90 55z"/>
<path style="fill:#4d4d4d; stroke:none;" d="M55.3333 56.6667C55.2778 56.7222 55.2222 57.7778 55.6667 57.3333C55.7222 57.2778 55.7778 56.2222 55.3333 56.6667M59 56L59 59L60 59C59.7488 57.5484 59.6848 57.2484 59 56M74 56L74 59L75 59C74.7488 57.5484 74.6848 57.2483 74 56z"/>
<path style="fill:#4f2602; stroke:none;" d="M22 57L22 67L23 67C22.9996 63.5856 23.3274 60.1633 22 57M33.3333 57.6667C33.2778 57.7222 33.2222 58.7778 33.6667 58.3333C33.7222 58.2778 33.7778 57.2222 33.3333 57.6667z"/>
<path style="fill:#393939; stroke:none;" d="M78 57L78 60L79 60C78.7488 58.5484 78.6848 58.2484 78 57z"/>
<path style="fill:#2b1501; stroke:none;" d="M83.3333 57.6667C83.2778 57.7223 83.2222 58.7778 83.6667 58.3333C83.7222 58.2778 83.7778 57.2222 83.3333 57.6667z"/>
<path style="fill:#703502; stroke:none;" d="M101 57L101 58L109 58C106.387 56.9023 103.835 57.0072 101 57z"/>
<path style="fill:#8a8a8a; stroke:none;" d="M55 58L55 62L56 62C55.8259 60.3148 55.683 59.506 55 58z"/>
<path style="fill:#c8c8c8; stroke:none;" d="M62.3333 58.6667C62.2778 58.7222 62.2222 59.7778 62.6667 59.3333C62.7222 59.2778 62.7778 58.2222 62.3333 58.6667z"/>
<path style="fill:#8a8a8a; stroke:none;" d="M65 58L64 62C65.6556 60.5957 65.7511 60.0465 65 58z"/>
<path style="fill:#2b1501; stroke:none;" d="M33 59L33 65L34 65C33.9528 62.7472 33.8742 61.0521 33 59z"/>
<path style="fill:#979797; stroke:none;" d="M74 59L74 65C75.9485 64.0643 76.5502 63.6076 78 62L74 59z"/>
<path style="fill:#4f2602; stroke:none;" d="M84 59L85 60L84 59z"/>
<path style="fill:#979797; stroke:none;" d="M58 60C57.2736 62.1792 57.5605 61.7803 56 61C57.3571 63.4164 59.2392 62.3721 58 60z"/>
<path style="fill:#393939; stroke:none;" d="M61 60L62 64L63 64C62.4038 62.4399 61.9114 61.3765 61 60z"/>
<path style="fill:#c8c8c8; stroke:none;" d="M77.3333 60.6667C77.2778 60.7222 77.2222 61.7778 77.6667 61.3333C77.7222 61.2778 77.7778 60.2222 77.3333 60.6667z"/>
<path style="fill:#924503; stroke:none;" d="M85 60L86 61L85 60z"/>
<path style="fill:#703502; stroke:none;" d="M107 60L108 61L107 60z"/>
<path style="fill:#b1b1b1; stroke:none;" d="M46 61L46 62L55 62C52.1103 60.7871 49.1259 61.0017 46 61M66 61L66 62L74 62C71.3873 60.9023 68.8355 61.0072 66 61z"/>
<path style="fill:#924503; stroke:none;" d="M106 61L107 62L106 61z"/>
<path style="fill:#8a8a8a; stroke:none;" d="M44 62L45 63L44 62z"/>
<path style="fill:#ededed; stroke:none;" d="M45 62L45 64L57 64C53.5181 61.3621 49.2392 62 45 62z"/>
<path style="fill:#979797; stroke:none;" d="M62.6667 62.3333C62.2222 62.7778 63.2778 62.7222 63.3333 62.6667C63.7778 62.2222 62.7222 62.2778 62.6667 62.3333z"/>
<path style="fill:#393939; stroke:none;" d="M42 63L43 64L42 63z"/>
<path style="fill:#717171; stroke:none;" d="M43 63L44 64L43 63z"/>
<path style="fill:#c8c8c8; stroke:none;" d="M44 63L45 64L44 63z"/>
<path style="fill:#393939; stroke:none;" d="M57 63L58 64L57 63z"/>
<path style="fill:#c8c8c8; stroke:none;" d="M63 63L64 64L63 63z"/>
<path style="fill:#4d4d4d; stroke:none;" d="M77 63L77 66L78 66C77.7488 64.5484 77.6848 64.2483 77 63z"/>
<path style="fill:#703502; stroke:none;" d="M87 63L88 64L87 63z"/>
<path style="fill:#b1b1b1; stroke:none;" d="M42.3333 64.6667C42.2778 64.7222 42.2222 65.7778 42.6667 65.3333C42.7222 65.2778 42.7778 64.2222 42.3333 64.6667z"/>
<path style="fill:#ededed; stroke:none;" d="M43 64C42.198 67.3679 42.0095 70.5448 42 74C45.4095 71.4045 45.4883 67.3016 43 64z"/>
<path style="fill:#8a8a8a; stroke:none;" d="M44.6667 64.3333C44.2222 64.7778 45.2778 64.7222 45.3333 64.6667C45.7778 64.2222 44.7222 64.2778 44.6667 64.3333z"/>
<path style="fill:#b1b1b1; stroke:none;" d="M46 64L46 65L55 65C52.1103 63.7871 49.1259 64.0017 46 64z"/>
<path style="fill:#4d4d4d; stroke:none;" d="M55 64L56 65L55 64z"/>
<path style="fill:#717171; stroke:none;" d="M64 64L65 65L64 64z"/>
<path style="fill:#b1b1b1; stroke:none;" d="M65 64L65 65L74 65C71.1103 63.7871 68.1259 64.0017 65 64z"/>
<path style="fill:#ededed; stroke:none;" d="M76 64C73.4937 67.445 72.9622 70.8909 74 75C76.1174 71.9048 76.8767 67.6522 76 64z"/>
<path style="fill:#924503; stroke:none;" d="M88 64L89 65L88 64z"/>
<path style="fill:#703502; stroke:none;" d="M104 64L105 65L104 64M33 65L33 68L34 68C33.7488 66.5484 33.6848 66.2484 33 65z"/>
<path style="fill:#979797; stroke:none;" d="M45 65L45 68L46 68C45.7488 66.5484 45.6848 66.2484 45 65z"/>
<path style="fill:#4d4d4d; stroke:none;" d="M73 65L74 66L73 65z"/>
<path style="fill:#924503; stroke:none;" d="M103 65L104 66L103 65z"/>
<path style="fill:#979797; stroke:none;" d="M73.3333 66.6667C73.2778 66.7222 73.2222 67.7778 73.6667 67.3333C73.7222 67.2778 73.7778 66.2222 73.3333 66.6667z"/>
<path style="fill:#c8c8c8; stroke:none;" d="M76 66L76 69L77 69C76.7488 67.5484 76.6848 67.2484 76 66z"/>
<path style="fill:#703502; stroke:none;" d="M90 67L91 68L90 67z"/>
<path style="fill:#4d4d4d; stroke:none;" d="M41 68L41 71L42 71C41.7488 69.5484 41.6848 69.2484 41 68z"/>
<path style="fill:#393939; stroke:none;" d="M45 68L45 71L46 71C45.7488 69.5484 45.6848 69.2484 45 68z"/>
<path style="fill:#c8c8c8; stroke:none;" d="M73.3333 68.6667C73.2777 68.7223 73.2222 69.7778 73.6667 69.3333C73.7222 69.2778 73.7778 68.2222 73.3333 68.6667z"/>
<path style="fill:#924503; stroke:none;" d="M91 68L92 69L91 68z"/>
<path style="fill:#703502; stroke:none;" d="M101 68L102 69L101 68M23.3333 69.6667C23.2778 69.7222 23.2222 70.7778 23.6667 70.3333C23.7222 70.2778 23.7778 69.2222 23.3333 69.6667z"/>
<path style="fill:#717171; stroke:none;" d="M76.3333 69.6667C76.2778 69.7222 76.2222 70.7778 76.6667 70.3333C76.7222 70.2778 76.7778 69.2222 76.3333 69.6667z"/>
<path style="fill:#b35503; stroke:none;" d="M100 69L101 70L100 69z"/>
<path style="fill:#4f2602; stroke:none;" d="M34 70L35 71L34 70z"/>
<path style="fill:#393939; stroke:none;" d="M72.3333 70.6667C72.2778 70.7223 72.2222 71.7778 72.6667 71.3333C72.7222 71.2778 72.7778 70.2222 72.3333 70.6667z"/>
<path style="fill:#924503; stroke:none;" d="M34 71L35 72L34 71z"/>
<path style="fill:#b1b1b1; stroke:none;" d="M41.3333 71.6667C41.2778 71.7222 41.2222 72.7778 41.6667 72.3333C41.7222 72.2778 41.7778 71.2222 41.3333 71.6667M44.3333 71.6667C44.2778 71.7222 44.2222 72.7778 44.6667 72.3333C44.7222 72.2778 44.7778 71.2222 44.3333 71.6667z"/>
<path style="fill:#393939; stroke:none;" d="M76.3333 71.6667C76.2778 71.7222 76.2222 72.7778 76.6667 72.3333C76.7222 72.2778 76.7778 71.2222 76.3333 71.6667z"/>
<path style="fill:#703502; stroke:none;" d="M93 71L94 72L93 71z"/>
<path style="fill:#717171; stroke:none;" d="M72.3333 72.6667C72.2778 72.7222 72.2222 73.7778 72.6667 73.3333C72.7222 73.2778 72.7778 72.2222 72.3333 72.6667z"/>
<path style="fill:#b35503; stroke:none;" d="M94 72L95 73L94 72z"/>
<path style="fill:#703502; stroke:none;" d="M98 72L99 73L98 72z"/>
<path style="fill:#924503; stroke:none;" d="M24 73L25 74L24 73z"/>
<path style="fill:#4f2602; stroke:none;" d="M35 73L36 74L35 73z"/>
<path style="fill:#717171; stroke:none;" d="M41 73L42 74L41 73z"/>
<path style="fill:#8a8a8a; stroke:none;" d="M42 75L43 76C46.6035 73.9959 49.9479 74.0031 54 74C50.1131 72.369 45.488 72.6171 42 75z"/>
<path style="fill:#c8c8c8; stroke:none;" d="M75 73L74 76C75.7662 75.0214 75.9555 74.7782 75 73z"/>
<path style="fill:#b35503; stroke:none;" d="M97 73L98 74L97 73z"/>
<path style="fill:#4f2602; stroke:none;" d="M24 74L25 75L24 74z"/>
<path style="fill:#c8c8c8; stroke:none;" d="M44 74L45 75L44 74z"/>
<path style="fill:#ededed; stroke:none;" d="M44 75L44 76L55 76C51.6155 73.4359 47.9541 73.8317 44 75z"/>
<path style="fill:#979797; stroke:none;" d="M54 74L55 75L54 74M73 74L74 75L73 74z"/>
<path style="fill:#4f2602; stroke:none;" d="M95 74L96 75L95 74M36 75L37 76L36 75z"/>
<path style="fill:#717171; stroke:none;" d="M55 75L56 76L55 75z"/>
<path style="fill:#924503; stroke:none;" d="M25 76L26 77L25 76z"/>
<path style="fill:#979797; stroke:none;" d="M44 76L45 77L44 76z"/>
<path style="fill:#c8c8c8; stroke:none;" d="M45 76L45 77L56 77C52.5676 75.5597 48.7002 76 45 76z"/>
<path style="fill:#2b1501; stroke:none;" d="M56 76C52.3432 77.0809 48.8008 76.9996 45 77L45 78C47.3684 78 57.2983 79.1448 56 76z"/>
<path style="fill:#717171; stroke:none;" d="M75 76L76 77L75 76z"/>
<path style="fill:#703502; stroke:none;" d="M37 77L38 78L37 77z"/>
<path style="fill:#b35503; stroke:none;" d="M26 78L27 79L26 78z"/>
<path style="fill:#4f2602; stroke:none;" d="M26 79L27 80L26 79z"/>
<path style="fill:#b35503; stroke:none;" d="M27 80L28 81L27 80z"/>
<path style="fill:#924503; stroke:none;" d="M39 80L40 81L39 80z"/>
<path style="fill:#703502; stroke:none;" d="M40 81L41 82L40 81z"/>
<path style="fill:#924503; stroke:none;" d="M28 82L29 83L28 82z"/>
<path style="fill:#703502; stroke:none;" d="M41 82L42 83L41 82z"/>
<path style="fill:#4f2602; stroke:none;" d="M82 82C81.0143 83.4785 81 83.2032 81 85L82 85C82.216 83.5774 82.2735 83.3283 82 82z"/>
<path style="fill:#fd7905; stroke:none;" d="M83 82C82.9309 85.7659 84.922 87.8986 87 91C88.6615 90.3872 89.4833 89.9573 91 89L91 88C88.4544 85.6748 85.9862 83.7205 83 82z"/>
<path style="fill:#b35503; stroke:none;" d="M84 82L85 83L84 82z"/>
<path style="fill:#703502; stroke:none;" d="M42 83L43 84L42 83z"/>
<path style="fill:#b35503; stroke:none;" d="M85 83L86 84L85 83z"/>
<path style="fill:#4f2602; stroke:none;" d="M29 84L30 85L29 84z"/>
<path style="fill:#924503; stroke:none;" d="M43 84L44 85L43 84M30 85L31 86L30 85z"/>
<path style="fill:#b35503; stroke:none;" d="M44 85L45 86L44 85z"/>
<path style="fill:#4f2602; stroke:none;" d="M79 85L80 86L79 85z"/>
<path style="fill:#703502; stroke:none;" d="M82 85L83 86L82 85z"/>
<path style="fill:#4f2602; stroke:none;" d="M46 86L47 87L46 86z"/>
<path style="fill:#fd7905; stroke:none;" d="M75 88C75.7395 91.1177 76.8486 94.0127 78 97C87.4206 95.075 83.1061 85.1685 75 88z"/>
<path style="fill:#703502; stroke:none;" d="M80 86L81 87L80 86M83 86L84 87L83 86z"/>
<path style="fill:#4f2602; stroke:none;" d="M89 86L90 87L89 86z"/>
<path style="fill:#b35503; stroke:none;" d="M47 87L48 88L47 87z"/>
<path style="fill:#924503; stroke:none;" d="M76 87L77 88L76 87z"/>
<path style="fill:#4f2602; stroke:none;" d="M81 87L82 88L81 87z"/>
<path style="fill:#924503; stroke:none;" d="M84 87L85 88L84 87z"/>
<path style="fill:#703502; stroke:none;" d="M90 87L91 88L90 87z"/>
<path style="fill:#924503; stroke:none;" d="M49 88L50 89L49 88z"/>
<path style="fill:#2b1501; stroke:none;" d="M74.3333 88.6667C74.2778 88.7222 74.2222 89.7778 74.6667 89.3333C74.7222 89.2778 74.7778 88.2222 74.3333 88.6667z"/>
<path style="fill:#924503; stroke:none;" d="M85 88L86 89L85 88z"/>
<path style="fill:#4f2602; stroke:none;" d="M33 89L34 90L33 89z"/>
<path style="fill:#b35503; stroke:none;" d="M51 89L52 90L51 89z"/>
<path style="fill:#703502; stroke:none;" d="M52 89L53 90L52 89z"/>
<path style="fill:#4f2602; stroke:none;" d="M71.6667 89.3333C71.2222 89.7778 72.2778 89.7222 72.3333 89.6667C72.7778 89.2222 71.7222 89.2778 71.6667 89.3333z"/>
<path style="fill:#b35503; stroke:none;" d="M86 89L87 90L86 89z"/>
<path style="fill:#703502; stroke:none;" d="M90 89L91 90L90 89z"/>
<path style="fill:#4f2602; stroke:none;" d="M34 90L35 91L34 90z"/>
<path style="fill:#924503; stroke:none;" d="M54.6667 90.3333C54.2222 90.7778 55.2778 90.7222 55.3333 90.6667C55.7778 90.2222 54.7222 90.2778 54.6667 90.3333z"/>
<path style="fill:#2b1501; stroke:none;" d="M56.6667 90.3333C56.2222 90.7778 57.2778 90.7222 57.3333 90.6667C57.7778 90.2222 56.7222 90.2778 56.6667 90.3333z"/>
<path style="fill:#703502; stroke:none;" d="M67 90L67 91L70 91C68.7516 90.3152 68.4516 90.2512 67 90z"/>
<path style="fill:#fd7905; stroke:none;" d="M64 91L64 101C73.0021 100.612 74.9737 98.6628 73 90L64 91z"/>
<path style="fill:#b35503; stroke:none;" d="M75 90L76 91L75 90M83 90L84 91L83 90z"/>
<path style="fill:#703502; stroke:none;" d="M89 90L90 91L89 90z"/>
<path style="fill:#4f2602; stroke:none;" d="M35 91L36 92L35 91z"/>
<path style="fill:#b35503; stroke:none;" d="M58 91L58 92C60.1247 94.8037 59.9885 97.5335 60 101L61 101L61 91L58 91z"/>
<path style="fill:#924503; stroke:none;" d="M63 91C63 94.7059 62.0486 99.421 65 102C64.1344 98.3643 64.4287 94.4035 63 91z"/>
<path style="fill:#4f2602; stroke:none;" d="M75 91L76 92L75 91z"/>
<path style="fill:#924503; stroke:none;" d="M84 91L85 92L84 91z"/>
<path style="fill:#4f2602; stroke:none;" d="M88 91L89 92L88 91z"/>
<path style="fill:#703502; stroke:none;" d="M73 92L74 93L73 92M85 92L86 93L85 92z"/>
<path style="fill:#b35503; stroke:none;" d="M38 93L39 94L38 93z"/>
<path style="fill:#703502; stroke:none;" d="M76 93L77 94L76 93z"/>
<path style="fill:#b35503; stroke:none;" d="M85 93L86 94L85 93z"/>
<path style="fill:#703502; stroke:none;" d="M39 94L40 95L39 94z"/>
<path style="fill:#924503; stroke:none;" d="M84 94L85 95L84 94z"/>
<path style="fill:#b35503; stroke:none;" d="M41 95L42 96L41 95z"/>
<path style="fill:#4f2602; stroke:none;" d="M74 95L75 96L74 95z"/>
<path style="fill:#b35503; stroke:none;" d="M77 95L78 96L77 95z"/>
<path style="fill:#4f2602; stroke:none;" d="M83 95L84 96L83 95z"/>
<path style="fill:#703502; stroke:none;" d="M42 96L43 97L42 96z"/>
<path style="fill:#4f2602; stroke:none;" d="M77 96L78 97L77 96z"/>
<path style="fill:#703502; stroke:none;" d="M81 96L82 97L81 96M44 97L45 98L44 97z"/>
<path style="fill:#924503; stroke:none;" d="M78.6667 97.3333C78.2222 97.7778 79.2778 97.7222 79.3333 97.6667C79.7778 97.2222 78.7222 97.2778 78.6667 97.3333z"/>
<path style="fill:#703502; stroke:none;" d="M46 98L47 99L46 98z"/>
<path style="fill:#2b1501; stroke:none;" d="M75.3333 98.6667C75.2778 98.7222 75.2222 99.7778 75.6667 99.3333C75.7222 99.2778 75.7778 98.2222 75.3333 98.6667z"/>
<path style="fill:#924503; stroke:none;" d="M49 99L50 100L49 99M74 99L75 100L74 99M52.6667 100.333C52.2222 100.778 53.2778 100.722 53.3333 100.667C53.7778 100.222 52.7222 100.278 52.6667 100.333z"/>
<path style="fill:#b35503; stroke:none;" d="M69 100L69 101L72 101C70.7517 100.315 70.4516 100.251 69 100z"/>
<path style="fill:#2b1501; stroke:none;" d="M55.6667 101.333C55.2222 101.778 56.2778 101.722 56.3333 101.667C56.7778 101.222 55.7222 101.278 55.6667 101.333z"/>
<path style="fill:#703502; stroke:none;" d="M57 101L57 102L61 102C59.494 101.317 58.6852 101.174 57 101z"/>
<path style="fill:#4f2602; stroke:none;" d="M65 101L65 102L68 102C66.7517 101.315 66.4516 101.251 65 101z"/>
</svg>
